# xmcd CD database file
#
# Track frame offsets:
#	150
#	16293
#	27985
#	42800
#	59743
#	76953
#	96638
#	112168
#	127825
#	144670
#
# Disc length: 2061 seconds
#
# Revision: 0
# Processed by: cddbd v1.5PL3 Copyright (c) Steve Scherf et al.
# Submitted via: CDex 1.51
#
DISCID=8a080b0a
DTITLE=Various Artist - デビューコレクション アイドル編
DYEAR=1996
DGENRE=Pop
TTITLE0=小川ローザ/風が落した涙
TTITLE1=辺見マリ/ダニエル・モナムール
TTITLE2=榊原郁恵/私の先生
TTITLE3=河合奈保子/大きな森の小さなお家
TTITLE4=堀江しのぶ/地下鉄マドンナ
TTITLE5=島田奈美/ガラスの幻想曲
TTITLE6=竹宏治/舞・舞・舞
TTITLE7=高見知佳/シンデレラ
TTITLE8=あおい健/純愛時代
TTITLE9=ミミ/おしゃれな土曜日
EXTD=YEAR: 1996
EXTT0=
EXTT1=
EXTT2=
EXTT3=
EXTT4=
EXTT5=
EXTT6=
EXTT7=
EXTT8=
EXTT9=
PLAYORDER=
